<svg xmlns="http://www.w3.org/2000/svg" viewBox="0 0 512 512">
  <style>
    path {
      animation: swatch-walk 40s linear infinite;
    }
    @keyframes swatch-walk {
    0% { fill: #3fbdbd; filter: drop-shadow(0 0 18px #3fbdbd); }
    11.1111% { fill: #5b8def; filter: drop-shadow(0 0 18px #5b8def); }
    22.2222% { fill: #9d7bef; filter: drop-shadow(0 0 18px #9d7bef); }
    33.3333% { fill: #ffa6c9; filter: drop-shadow(0 0 18px #ffa6c9); }
    44.4444% { fill: #ff355e; filter: drop-shadow(0 0 18px #ff355e); }
    55.5556% { fill: #ffa800; filter: drop-shadow(0 0 18px #ffa800); }
    66.6667% { fill: #ffee8c; filter: drop-shadow(0 0 18px #ffee8c); }
    77.7778% { fill: #ccff00; filter: drop-shadow(0 0 18px #ccff00); }
    88.8889% { fill: #80ef80; filter: drop-shadow(0 0 18px #80ef80); }
    100% { fill: #3fbdbd; filter: drop-shadow(0 0 18px #3fbdbd); }
    }
    @media (prefers-reduced-motion: reduce) {
      path {
        animation: none;
        fill: #3fbdbd;
        filter: drop-shadow(0 0 18px #3fbdbd);
      }
    }
  </style>
  <path d="M161.653046,399.999817 C154.740601,401.819580 148.197983,403.485931 140.964203,405.328339 C143.300949,398.876709 147.585297,394.552399 150.854614,389.774078 C157.119476,380.617584 162.993607,371.198853 169.363403,362.125793 C179.465057,347.737091 189.789291,333.498749 200.282959,319.392944 C210.382401,305.817047 220.998642,292.638702 232.514923,280.217529 C241.550476,270.472015 250.401245,260.541473 259.734680,251.088654 C280.223938,230.337402 302.554565,211.630844 326.749542,195.441132 C347.024261,181.874634 367.598602,168.649506 389.690826,157.994659 C399.421875,153.301498 408.772278,147.815872 418.858276,143.836670 C423.196838,142.124985 424.255585,138.644821 423.508484,134.490234 C422.754303,130.296265 419.372925,130.517426 416.115997,130.303925 C411.176117,129.980103 407.105499,132.563690 402.834076,134.158279 C373.584320,145.077774 344.707703,156.941544 316.885315,171.144455 C302.845642,178.311493 288.677216,185.441345 275.717255,194.449326 C256.798645,207.598969 238.426941,221.453186 221.125946,236.802277 C206.129456,250.106873 192.446732,264.611450 179.609970,279.814606 C167.011032,294.736115 154.676697,309.938629 143.856415,326.368042 C138.263611,334.860107 131.822968,343.010712 126.187492,351.505615 C119.312691,361.868683 112.407066,372.234344 105.550896,382.621033 C95.976166,397.126282 86.865120,411.948364 75.883949,427.049866 C73.300262,421.101929 70.559044,416.166992 68.967026,410.885620 C62.459133,389.296234 58.920681,367.191864 57.599663,344.654816 C56.505871,325.994446 56.586586,307.369873 57.838108,288.759003 C59.695866,261.133118 64.422264,234.071854 73.093628,207.637100 C79.899452,186.889435 89.596893,167.722107 101.492874,149.593735 C112.234154,133.225037 125.143143,118.711464 140.423553,106.388634 C141.716278,105.346123 143.140594,104.462517 144.533829,103.551041 C145.065598,103.203140 145.681900,102.984467 146.848740,102.423904 C140.301819,139.022415 153.211868,164.378769 189.795456,173.184509 C212.610229,178.676071 236.658432,166.086212 246.422424,145.702133 C262.108124,112.955391 249.943970,88.321388 221.187988,68.680672 C232.588699,66.086006 243.132050,64.271500 253.841064,63.463894 C292.928650,60.516117 331.325531,65.403152 369.142975,74.752647 C402.618042,83.028595 435.088287,94.510056 466.682831,108.392632 C471.698181,110.596367 476.763184,112.690880 481.844116,114.739426 C483.424255,115.376503 484.914734,116.006378 486.065125,117.954468 C481.675659,123.513611 477.093292,129.133804 472.709137,134.904556 C460.426514,151.071808 449.541565,168.102203 439.904968,186.014893 C428.922302,206.429703 419.962677,227.659958 412.327759,249.479874 C405.243866,269.724945 398.746857,290.178741 391.458588,310.348083 C382.636841,334.761139 372.746307,358.792633 358.643372,380.705078 C337.772736,413.132904 312.083374,440.598175 276.035095,456.528534 C253.530579,466.473633 229.806122,470.718933 205.243423,471.541626 C175.756897,472.529236 147.341080,467.167419 119.300407,458.841064 C118.507309,458.605530 117.739311,458.255341 117.003677,457.873688 C116.764229,457.749451 116.665291,457.354340 116.279152,456.712616 C120.412254,454.450073 124.948265,454.054443 129.410583,453.350098 C145.054062,450.880890 159.976471,445.604492 175.090485,441.186340 C197.952118,434.503418 219.941406,425.467499 241.093918,414.441132 C258.250336,405.497894 273.878998,394.258881 289.205841,382.581573 C294.162933,378.804779 294.328796,371.686432 289.494049,367.882721 C283.566559,363.219330 278.500549,357.709656 273.097443,352.527832 C269.031586,348.628510 263.429993,347.839386 259.109619,351.299927 C242.362946,364.713623 223.530396,374.561310 204.320374,383.768860 C192.785828,389.297485 180.975433,394.157562 168.563339,397.436371 C166.327011,398.027161 164.200211,399.032501 161.653046,399.999817 z" />
</svg>
